<svg width="31" height="31" viewBox="0 0 31 31" fill="none" xmlns="http://www.w3.org/2000/svg">
<path d="M29.25 14.25H4.25V4.25C4.25 2.875 5.375 1.75 6.75 1.75C8.125 1.75 9.25 2.875 9.25 4.25V5.625C8.75 5.75 8.25 6.25 8.125 6.75H11.625C11.5 6.25 11 5.75 10.5 5.625V4.25C10.5 2.125 8.875 0.5 6.75 0.5C4.625 0.5 3 2.125 3 4.25V14.25H1.75C1 14.25 0.5 14.75 0.5 15.5V20.5C0.5 23.25 2 25.75 4.25 27V28C4.25 29.375 5.375 30.5 6.75 30.5C8.125 30.5 9.25 29.375 9.25 28H21.75C21.75 29.375 22.875 30.5 24.25 30.5C25.625 30.5 26.75 29.375 26.75 28V27C29 25.75 30.5 23.25 30.5 20.5V15.5C30.5 14.75 30 14.25 29.25 14.25ZM6.75 29.25C6 29.25 5.5 28.75 5.5 28V27.625C6.25 27.875 7.125 28 8 28C8 28.75 7.5 29.25 6.75 29.25ZM25.5 28C25.5 28.75 25 29.25 24.25 29.25C23.5 29.25 23 28.75 23 28C23.875 28 24.75 27.875 25.5 27.625V28ZM28 20.5C28 23.25 25.75 25.5 23 25.5H8C5.25 25.5 3 23.25 3 20.5V19.25H28V20.5ZM28 18H3V16.75H28V18Z" fill="#1C64F2"/>
</svg>
