<svg width="30" height="25" viewBox="0 0 30 25" fill="none" xmlns="http://www.w3.org/2000/svg">
<path d="M8.25 12.5C10.3177 12.5 12 10.8177 12 8.75C12 6.68234 10.3177 5 8.25 5C6.18234 5 4.5 6.68234 4.5 8.75C4.5 10.8177 6.18234 12.5 8.25 12.5ZM24.75 6.5H14.25C13.8356 6.5 13.5 6.83562 13.5 7.25V14H3V4.25C3 3.83562 2.66438 3.5 2.25 3.5H0.75C0.335625 3.5 0 3.83562 0 4.25V20.75C0 21.1644 0.335625 21.5 0.75 21.5H2.25C2.66438 21.5 3 21.1644 3 20.75V18.5H27V20.75C27 21.1644 27.3356 21.5 27.75 21.5H29.25C29.6644 21.5 30 21.1644 30 20.75V11.75C30 8.85031 27.6497 6.5 24.75 6.5Z" fill="#1C64F2"/>
</svg>
