<svg width="26" height="24" viewBox="0 0 26 24" fill="none" xmlns="http://www.w3.org/2000/svg">
<path d="M7 4.65005V5.65005C7.35567 5.65005 7.68457 5.46114 7.86378 5.15392L7 4.65005ZM9.1 1.05005V0.0500488C8.74433 0.0500488 8.41543 0.23896 8.23622 0.546178L9.1 1.05005ZM16.9 1.05005L17.7638 0.546178C17.5846 0.23896 17.2557 0.0500488 16.9 0.0500488V1.05005ZM19 4.65005L18.1362 5.15392C18.3154 5.46114 18.6443 5.65005 19 5.65005V4.65005ZM1 19.95H2V7.65005H1H0V19.95H1ZM4 4.65005V5.65005H7V4.65005V3.65005H4V4.65005ZM7 4.65005L7.86378 5.15392L9.96378 1.55392L9.1 1.05005L8.23622 0.546178L6.13622 4.14618L7 4.65005ZM9.1 1.05005V2.05005H16.9V1.05005V0.0500488H9.1V1.05005ZM16.9 1.05005L16.0362 1.55392L18.1362 5.15392L19 4.65005L19.8638 4.14618L17.7638 0.546178L16.9 1.05005ZM19 4.65005V5.65005H22V4.65005V3.65005H19V4.65005ZM25 7.65005H24V19.95H25H26V7.65005H25ZM25 19.95H24C24 21.0546 23.1046 21.95 22 21.95V22.95V23.95C24.2091 23.95 26 22.1592 26 19.95H25ZM22 4.65005V5.65005C23.1046 5.65005 24 6.54548 24 7.65005H25H26C26 5.44091 24.2091 3.65005 22 3.65005V4.65005ZM1 7.65005H2C2 6.54548 2.89543 5.65005 4 5.65005V4.65005V3.65005C1.79086 3.65005 0 5.44091 0 7.65005H1ZM4 22.95V21.95C2.89543 21.95 2 21.0546 2 19.95H1H0C0 22.1592 1.79086 23.95 4 23.95V22.95ZM17.5 13.05H16.5C16.5 14.983 14.933 16.55 13 16.55V17.55V18.55C16.0376 18.55 18.5 16.0876 18.5 13.05H17.5ZM13 17.55V16.55C11.067 16.55 9.5 14.983 9.5 13.05H8.5H7.5C7.5 16.0876 9.96243 18.55 13 18.55V17.55ZM8.5 13.05H9.5C9.5 11.1171 11.067 9.55005 13 9.55005V8.55005V7.55005C9.96243 7.55005 7.5 10.0125 7.5 13.05H8.5ZM13 8.55005V9.55005C14.933 9.55005 16.5 11.1171 16.5 13.05H17.5H18.5C18.5 10.0125 16.0376 7.55005 13 7.55005V8.55005ZM22 22.95V21.95H4V22.95V23.95H22V22.95Z" fill="#1E429F"/>
</svg>
