<svg width="25" height="25" viewBox="0 0 25 25" fill="none" xmlns="http://www.w3.org/2000/svg">
<path d="M18.0771 3.60834L20.1865 1.49897C21.1018 0.583677 22.5857 0.583677 23.501 1.49897C24.4163 2.41426 24.4163 3.89824 23.501 4.81353L10.2277 18.0868C9.56688 18.7477 8.75179 19.2335 7.85611 19.5003L4.5 20.5L5.49972 17.1439C5.76653 16.2482 6.25231 15.4331 6.91315 14.7723L18.0771 3.60834ZM18.0771 3.60834L21.375 6.90624M19.5 15.5V21.4375C19.5 22.9908 18.2408 24.25 16.6875 24.25H3.5625C2.0092 24.25 0.75 22.9908 0.75 21.4375V8.31249C0.75 6.75919 2.0092 5.49999 3.5625 5.49999H9.5" stroke="#1E429F" stroke-width="1.5" stroke-linecap="round" stroke-linejoin="round"/>
</svg>
