<svg width="22" height="23" viewBox="0 0 22 23" fill="none" xmlns="http://www.w3.org/2000/svg">
<path d="M12.845 3.10595L14.5852 6.58634C14.8225 7.07083 15.4553 7.53554 15.9892 7.62452L19.1433 8.14856C21.1603 8.48473 21.6349 9.94808 20.1815 11.3916L17.7294 13.8437C17.3141 14.259 17.0867 15.0599 17.2152 15.6334L17.9172 18.6688C18.4709 21.0715 17.1955 22.0009 15.0697 20.7452L12.1133 18.9951C11.5794 18.6787 10.6994 18.6787 10.1556 18.9951L7.19924 20.7452C5.08333 22.0009 3.79796 21.0616 4.35165 18.6688L5.05366 15.6334C5.1822 15.0599 4.95479 14.259 4.53952 13.8437L2.08743 11.3916C0.643856 9.94808 1.10857 8.48473 3.12561 8.14856L6.27971 7.62452C6.80374 7.53554 7.43654 7.07083 7.67384 6.58634L9.41403 3.10595C10.3632 1.21745 11.9057 1.21745 12.845 3.10595Z" fill="#FCBA42" stroke="#FCBA42" stroke-width="1.48312" stroke-linecap="round" stroke-linejoin="round"/>
</svg>
