<svg width="30" height="31" viewBox="0 0 30 31" fill="none" xmlns="http://www.w3.org/2000/svg">
<g clip-path="url(#clip0_742_29809)">
<path d="M28.75 6.75C29.0815 6.75 29.3995 6.6183 29.6339 6.38388C29.8683 6.14946 30 5.83152 30 5.5V1.75C30 1.41848 29.8683 1.10054 29.6339 0.866117C29.3995 0.631696 29.0815 0.5 28.75 0.5H25C24.6685 0.5 24.3505 0.631696 24.1161 0.866117C23.8817 1.10054 23.75 1.41848 23.75 1.75V3H6.25V1.75C6.25 1.41848 6.1183 1.10054 5.88388 0.866117C5.64946 0.631696 5.33152 0.5 5 0.5H1.25C0.918479 0.5 0.600537 0.631696 0.366117 0.866117C0.131696 1.10054 0 1.41848 0 1.75L0 5.5C0 5.83152 0.131696 6.14946 0.366117 6.38388C0.600537 6.6183 0.918479 6.75 1.25 6.75H2.5V24.25H1.25C0.918479 24.25 0.600537 24.3817 0.366117 24.6161C0.131696 24.8505 0 25.1685 0 25.5L0 29.25C0 29.5815 0.131696 29.8995 0.366117 30.1339C0.600537 30.3683 0.918479 30.5 1.25 30.5H5C5.33152 30.5 5.64946 30.3683 5.88388 30.1339C6.1183 29.8995 6.25 29.5815 6.25 29.25V28H23.75V29.25C23.75 29.5815 23.8817 29.8995 24.1161 30.1339C24.3505 30.3683 24.6685 30.5 25 30.5H28.75C29.0815 30.5 29.3995 30.3683 29.6339 30.1339C29.8683 29.8995 30 29.5815 30 29.25V25.5C30 25.1685 29.8683 24.8505 29.6339 24.6161C29.3995 24.3817 29.0815 24.25 28.75 24.25H27.5V6.75H28.75ZM1.25 5.5V1.75H5V5.5H1.25ZM5 29.25H1.25V25.5H5V29.25ZM23.75 25.5V26.75H6.25V25.5C6.25 25.1685 6.1183 24.8505 5.88388 24.6161C5.64946 24.3817 5.33152 24.25 5 24.25H3.75V6.75H5C5.33152 6.75 5.64946 6.6183 5.88388 6.38388C6.1183 6.14946 6.25 5.83152 6.25 5.5V4.25H23.75V5.5C23.75 5.83152 23.8817 6.14946 24.1161 6.38388C24.3505 6.6183 24.6685 6.75 25 6.75H26.25V24.25H25C24.6685 24.25 24.3505 24.3817 24.1161 24.6161C23.8817 24.8505 23.75 25.1685 23.75 25.5ZM28.75 25.5V29.25H25V25.5H28.75ZM25 5.5V1.75H28.75V5.5H25Z" fill="#1C64F2"/>
</g>
<defs>
<clipPath id="clip0_742_29809">
<rect width="30" height="30" fill="white" transform="translate(0 0.5)"/>
</clipPath>
</defs>
</svg>
